<?xml version="1.0" encoding="utf-8"?>
<!-- Generator: Adobe Illustrator 16.0.0, SVG Export Plug-In . SVG Version: 6.00 Build 0)  -->
<!DOCTYPE svg PUBLIC "-//W3C//DTD SVG 1.1//EN" "http://www.w3.org/Graphics/SVG/1.1/DTD/svg11.dtd">
<svg version="1.1" id="Layer_1" xmlns="http://www.w3.org/2000/svg" xmlns:xlink="http://www.w3.org/1999/xlink" x="0px" y="0px"
	 width="167.754px" height="45.568px" viewBox="0 0 167.754 45.568" enable-background="new 0 0 167.754 45.568"
	 xml:space="preserve">
<g id="Layer_1_1_">
	<g>
		<g>
			<path fill="#71BAF7" d="M55.792,36.274c0,3.999-3.242,7.241-7.241,7.241s-7.242-3.242-7.242-7.241
				c0-1.489,0.452-2.873,1.223-4.022L25.32,9.185c-0.799-1.068-0.576-2.582,0.493-3.385c0.433-0.32,0.941-0.479,1.442-0.479
				c0.737,0,1.463,0.335,1.938,0.972l17.211,23.063c0.678-0.211,1.4-0.324,2.147-0.324C52.55,29.034,55.792,32.276,55.792,36.274z
				 M39.151,35.85c0-0.458,0.045-1.267,0.11-1.267H14.144c-0.925-3-3.666-5.305-6.904-5.305C3.243,29.28,0,32.397,0,36.398
				c0,3.997,3.243,7.509,7.24,7.509c3.064,0,5.675-2.322,6.734-4.322h26C39.449,38.585,39.151,37.215,39.151,35.85z M23.59,10.478
				c-1.508-2.021-1.092-4.896,0.929-6.406c0.797-0.595,1.745-0.91,2.736-0.91c1.439,0,2.81,0.69,3.67,1.841l3.347,4.484
				c0.141-0.562,0.224-1.146,0.224-1.749c0-3.997-3.242-7.239-7.24-7.239c-3.996,0-7.24,3.242-7.24,7.239
				c0,1.574,0.51,3.027,1.362,4.217L10.435,27.684c1.549,0.581,2.904,1.557,3.926,2.817l10.987-15.786
				c0.507,0.14,1.039,0.216,1.584,0.238L23.59,10.478z"/>
		</g>
		<g>
			<g>
				<path fill="#71BAF7" d="M83.901,7.25v3.026c0,4.035-3.279,7.312-7.251,7.312h-3.278V30.2c0,0.504-0.441,1.009-1.009,1.009
					h-2.018c-0.504,0-1.009-0.504-1.009-1.009V17.59v-4.032V1.009C69.336,0.441,69.841,0,70.345,0h6.305
					C80.622,0,83.901,3.279,83.901,7.25z M79.866,7.25c0-1.765-1.45-3.215-3.216-3.215h-3.278v9.521h3.278
					c1.766,0,3.216-1.45,3.216-3.279V7.25z"/>
				<path fill="#71BAF7" d="M91.846,30.201c0,0.567-0.441,1.009-1.01,1.009h-2.02c-0.566,0-1.008-0.438-1.008-1.009V1.009
					C87.811,0.441,88.25,0,88.818,0h2.019c0.504,0,1.011,0.441,1.011,1.009L91.846,30.201L91.846,30.201z"/>
				<path fill="#71BAF7" d="M111.643,7.314v22.887c0,0.567-0.439,1.009-1.01,1.009h-2.018c-0.568,0-1.01-0.438-1.01-1.009V17.654
					h-6.494v12.547c0,0.567-0.441,1.009-1.01,1.009h-2.02c-0.564,0-1.008-0.438-1.008-1.009V7.314c0-3.975,3.275-7.251,7.312-7.251
					C108.363,0.063,111.643,3.342,111.643,7.314z M107.607,7.314c0-1.769-1.45-3.216-3.217-3.216c-1.828,0-3.277,1.447-3.277,3.216
					v6.305h6.494V7.314z"/>
				<path fill="#71BAF7" d="M126.709,9.395V7.25c0-1.765-1.449-3.215-3.215-3.215s-3.217,1.45-3.217,3.215
					c0,0.82,0,0.82,0.188,1.072l8.766,11.601c1.514,2.021,1.514,2.021,1.514,4.035c0,3.975-3.277,7.25-7.25,7.25
					s-7.25-3.275-7.25-7.25v-2.144c0-0.567,0.439-1.009,1.008-1.009h2.02c0.566,0,1.009,0.438,1.009,1.009v2.144
					c0,1.768,1.45,3.215,3.218,3.215c1.766,0,3.215-1.447,3.215-3.215c0-0.817,0-0.817-0.188-1.072l-8.766-11.602
					c-1.514-2.018-1.514-2.018-1.514-4.035c0-3.972,3.277-7.25,7.252-7.25c3.971,0,7.25,3.279,7.25,7.25v2.146
					c0,0.564-0.439,1.009-1.012,1.009h-2.018C127.152,10.403,126.709,9.962,126.709,9.395z"/>
				<path fill="#71BAF7" d="M149.282,1.009v9.271c0,3.342-2.207,6.116-5.232,6.999v12.925c0,0.504-0.504,1.009-1.01,1.009h-2.019
					c-0.565,0-1.008-0.504-1.008-1.009V17.275c-3.091-0.882-5.298-3.657-5.298-6.999V1.009c0-0.564,0.441-1.009,1.011-1.009h2.019
					c0.567,0,1.008,0.441,1.008,1.009v9.271c0,1.829,1.451,3.279,3.279,3.279c1.766,0,3.215-1.45,3.215-3.279V1.009
					c0-0.564,0.44-1.009,1.01-1.009h2.019C148.84,0,149.282,0.441,149.282,1.009z"/>
				<path fill="#71BAF7" d="M163.721,9.395V7.25c0-1.765-1.451-3.215-3.217-3.215s-3.215,1.45-3.215,3.215
					c0,0.82,0,0.82,0.188,1.072l8.767,11.601c1.512,2.021,1.512,2.021,1.512,4.035c0,3.975-3.276,7.25-7.25,7.25
					c-3.971,0-7.25-3.275-7.25-7.25v-2.144c0-0.567,0.438-1.009,1.011-1.009h2.019c0.567,0,1.008,0.438,1.008,1.009v2.144
					c0,1.768,1.451,3.215,3.217,3.215c1.765,0,3.216-1.447,3.216-3.215c0-0.817,0-0.817-0.188-1.072l-8.765-11.602
					c-1.515-2.018-1.515-2.018-1.515-4.035c0-3.972,3.279-7.25,7.252-7.25c3.972,0,7.25,3.279,7.25,7.25v2.146
					c0,0.564-0.44,1.009-1.01,1.009h-2.019C164.163,10.403,163.721,9.962,163.721,9.395z"/>
			</g>
			<g>
				<path fill="#71BAF7" d="M72.493,42.221h-2.419V45.5h-0.631v-7.732h3.051c1.438,0,2.513,0.804,2.513,2.227
					C75.006,41.407,73.931,42.221,72.493,42.221z M72.423,38.289h-2.349V41.7h2.349c1.157,0,1.952-0.543,1.952-1.706
					S73.58,38.289,72.423,38.289z"/>
				<path fill="#71BAF7" d="M77.11,37.767h0.631V45.5H77.11V37.767z"/>
				<path fill="#71BAF7" d="M84.777,43.623h-3.879l-0.725,1.879h-0.678l3.062-7.732h0.561l3.062,7.732h-0.678L84.777,43.623z
					 M81.096,43.102h3.482l-1.742-4.555L81.096,43.102z"/>
				<path fill="#71BAF7" d="M87.934,37.767h0.631v7.214h4.418v0.521h-5.049V37.767z"/>
				<path fill="#71BAF7" d="M99.213,44.774c-0.549,0.511-1.285,0.793-2.08,0.793s-1.531-0.283-2.082-0.793
					c-0.76-0.706-0.771-1.401-0.771-3.143c0-1.749,0.015-2.434,0.771-3.14c0.551-0.511,1.287-0.793,2.082-0.793
					c0.793,0,1.531,0.283,2.08,0.793c0.76,0.706,0.771,1.391,0.771,3.14C99.984,43.373,99.975,44.068,99.213,44.774z M98.711,38.821
					c-0.422-0.391-0.982-0.598-1.578-0.598s-1.156,0.207-1.578,0.598c-0.596,0.554-0.643,1.163-0.643,2.812
					c0,1.651,0.047,2.263,0.643,2.814c0.422,0.391,0.982,0.598,1.578,0.598s1.156-0.207,1.578-0.598
					c0.596-0.554,0.643-1.163,0.643-2.814C99.354,39.984,99.309,39.375,98.711,38.821z"/>
				<path fill="#71BAF7" d="M105.445,41.939h-2.291v3.562h-0.631v-7.732h3.166c1.354,0,2.386,0.728,2.386,2.072
					c0,1.162-0.748,1.901-1.918,2.086l2.01,3.574h-0.735L105.445,41.939z M105.607,38.289h-2.455v3.129h2.455
					c1.076,0,1.836-0.486,1.836-1.562S106.684,38.289,105.607,38.289z"/>
				<path fill="#71BAF7" d="M112.575,45.568c-1.228,0-2.011-0.315-2.771-1.021l0.442-0.413c0.748,0.695,1.369,0.913,2.36,0.913
					c1.32,0,2.14-0.587,2.14-1.597c0-0.467-0.142-0.836-0.455-1.086c-0.315-0.229-0.517-0.326-1.205-0.413l-0.969-0.141
					c-0.634-0.087-1.123-0.271-1.484-0.565c-0.432-0.337-0.653-0.812-0.653-1.423c0-1.304,0.981-2.119,2.584-2.119
					c1.026,0,1.683,0.261,2.396,0.837l-0.408,0.38c-0.491-0.435-1.041-0.717-2.022-0.717c-1.215,0-1.928,0.608-1.928,1.597
					c0,0.445,0.142,0.782,0.435,1.013c0.291,0.228,0.771,0.399,1.237,0.478l0.899,0.13c0.783,0.101,1.146,0.239,1.483,0.514
					c0.455,0.348,0.726,0.88,0.726,1.499C115.379,44.742,114.316,45.568,112.575,45.568z"/>
				<path fill="#71BAF7" d="M117.648,37.767h0.631V45.5h-0.631V37.767z"/>
				<path fill="#71BAF7" d="M126.497,45.568c-1.228,0-2.011-0.315-2.771-1.021l0.442-0.413c0.748,0.695,1.367,0.913,2.36,0.913
					c1.32,0,2.14-0.587,2.14-1.597c0-0.467-0.142-0.836-0.457-1.086c-0.313-0.229-0.514-0.326-1.203-0.413l-0.971-0.141
					c-0.631-0.087-1.121-0.271-1.481-0.565c-0.435-0.337-0.654-0.812-0.654-1.423c0-1.304,0.979-2.119,2.582-2.119
					c1.029,0,1.685,0.261,2.396,0.837l-0.407,0.38c-0.492-0.435-1.041-0.717-2.022-0.717c-1.216,0-1.929,0.608-1.929,1.597
					c0,0.445,0.142,0.782,0.433,1.013c0.293,0.228,0.771,0.399,1.239,0.478l0.897,0.13c0.783,0.101,1.146,0.239,1.484,0.514
					c0.457,0.348,0.726,0.88,0.726,1.499C129.301,44.742,128.238,45.568,126.497,45.568z"/>
				<path fill="#71BAF7" d="M131.568,37.767h0.632V45.5h-0.632V37.767z"/>
				<path fill="#71BAF7" d="M137.145,45.568c-1.227,0-2.01-0.315-2.77-1.021l0.443-0.413c0.748,0.695,1.367,0.913,2.361,0.913
					c1.318,0,2.139-0.587,2.139-1.597c0-0.467-0.142-0.836-0.457-1.086c-0.314-0.229-0.514-0.326-1.203-0.413l-0.971-0.141
					c-0.631-0.087-1.121-0.271-1.482-0.565c-0.434-0.337-0.654-0.812-0.654-1.423c0-1.304,0.982-2.119,2.582-2.119
					c1.029,0,1.684,0.261,2.396,0.837l-0.408,0.38c-0.492-0.435-1.041-0.717-2.021-0.717c-1.217,0-1.93,0.608-1.93,1.597
					c0,0.445,0.141,0.782,0.434,1.013c0.291,0.228,0.771,0.399,1.238,0.478l0.9,0.13c0.781,0.101,1.146,0.239,1.482,0.514
					c0.457,0.348,0.727,0.88,0.727,1.499C139.95,44.742,138.887,45.568,137.145,45.568z"/>
				<path fill="#71BAF7" d="M144.393,45.502h-0.631v-7.214h-2.479v-0.521h5.598v0.521h-2.488V45.502L144.393,45.502z"/>
				<path fill="#71BAF7" d="M148.811,37.767h5.049v0.521h-4.418v3.053h3.766v0.521h-3.766v3.118h4.418v0.521h-5.049V37.767
					L148.811,37.767z"/>
				<path fill="#71BAF7" d="M162.452,39.125l-2.525,5.291h-0.631l-2.569-5.291v6.377h-0.631v-7.732h0.631l2.897,5.964l2.828-5.964
					h0.631v7.732h-0.631V39.125L162.452,39.125z"/>
				<path fill="#71BAF7" d="M165.945,37.767h0.632V45.5h-0.632V37.767z"/>
			</g>
		</g>
	</g>
</g>
</svg>
